# xmcd CD database file
#
# Track frame offsets:
#	150
#	12939
#	20847
#	42845
#	69949
#	88783
#	117813
#	142879
#	160475
#	183489
#	204453
#	235055
#	255272
#	268251
#	284592
#
# Disc length: 4098 seconds
#
# Revision: 0
# Processed by: cddbd v1.5.2PL0 Copyright (c) Steve Scherf et al.
# Submitted via: CDex 1.70beta2
#
DISCID=d110000f
DTITLE=Vinny Golia - Music For Like Instruments - The Bb Saxophones
DYEAR=2007
DGENRE=Jazz
TTITLE0=Aladj
TTITLE1=Introduction To 4th Year Geometry
TTITLE2=Dollar Sign Woman
TTITLE3=The Final Straw, A Concern For Timings..
TTITLE4=For All Concerned
TTITLE5=The Harder Blues
TTITLE6=Mr. Charles Watches All...
TTITLE7=New Improved Mr. Fennell (he has a thin mustache and parts his hair on the other side)...
TTITLE8=Pierre Lynstrom The Princess Ashunga Wears Purple Everyday (for Chris McGregor)
TTITLE9=Spillage, The Imagery Of The Cup
TTITLE10=Ventriloquist and Dummy...
TTITLE11=A Visit From The Mole
TTITLE12=The Frozen North, Or Why We Like Squid
TTITLE13=A Visit To The 440 Club...
TTITLE14=(untitled)
EXTD=YEAR: 2007
EXTT0=
EXTT1=
EXTT2=
EXTT3=
EXTT4=
EXTT5=
EXTT6=
EXTT7=
EXTT8=
EXTT9=
EXTT10=
EXTT11=
EXTT12=
EXTT13=
EXTT14=
PLAYORDER=
